Patient4_TMGait_0pt5_01_left_06_GRF.mot
version=1
nRows=31
nColumns=19
inDegrees=no
endheader
time	F1x	F1y	F1z	M1x	M1y	M1z	F2x	F2y	F2z	M2x	M2y	M2z	EC1x	EC1y	EC1z	EC2x	EC2y	EC2z
7.98	0	0	0	0	0	0	-33.6427	700.0256	-51.4441	249.1267	50.0713	552.1472	-0.0462	0.0182	-0.0073	-0.0462	0.0165	0.9715
7.9941	0	0	0	0	0	0	-34.8033	742.8445	-54.3328	264.2008	52.7276	583.2129	-0.0462	0.0182	-0.0073	-0.0462	0.0165	0.9715
8.0081	0	0	0	0	0	0	-34.9599	771.2392	-56.0127	274.1445	54.0902	601.9424	-0.0462	0.0182	-0.0073	-0.0462	0.0165	0.9715
8.0222	0	0	0	0	0	0	-34.2866	788.361	-56.6828	280.1021	54.3518	610.8816	-0.0462	0.0182	-0.0073	-0.0462	0.0165	0.9715
8.0363	0	0	0	0	0	0	-33.0003	797.7629	-56.5828	283.3569	53.7598	612.9673	-0.0462	0.0182	-0.0073	-0.0462	0.0165	0.9715
8.0504	0	0	0	0	0	0	-31.3183	802.6544	-55.9483	285.0618	52.5683	610.9249	-0.0462	0.0182	-0.0073	-0.0462	0.0165	0.9715
8.0644	0	0	0	0	0	0	-29.4266	805.3901	-54.9803	286.0544	51.0019	606.8436	-0.0462	0.0182	-0.0073	-0.0462	0.0165	0.9715
8.0785	0	0	0	0	0	0	-27.4593	807.2443	-53.8317	286.7763	49.235	601.9743	-0.0462	0.0182	-0.0073	-0.0462	0.0165	0.9715
8.0926	0	0	0	0	0	0	-25.4929	808.4597	-52.6068	287.2929	47.3865	596.7423	-0.0462	0.0182	-0.0073	-0.0462	0.0165	0.9715
8.1066	0	0	0	0	0	0	-23.5497	808.5109	-51.3715	287.3917	45.525	590.9305	-0.0462	0.0182	-0.0073	-0.0462	0.0165	0.9715
8.1207	0	0	0	0	0	0	-21.6072	806.4925	-50.1677	286.7263	43.6826	583.962	-0.0462	0.0182	-0.0073	-0.0462	0.0165	0.9715
8.1348	0	0	0	0	0	0	-19.611	801.5309	-49.0282	284.9689	41.869	575.2083	-0.0462	0.0182	-0.0073	-0.0462	0.0165	0.9715
8.1489	0	0	0	0	0	0	-17.4858	793.1301	-47.9891	281.9385	40.086	564.2522	-0.0462	0.0182	-0.0073	-0.0462	0.0165	0.9715
8.1629	0	0	0	0	0	0	-15.1471	781.3834	-47.0963	277.6787	38.3375	551.0561	-0.0462	0.0182	-0.0073	-0.0462	0.0165	0.9715
8.177	0	0	0	0	0	0	-12.5119	767.0197	-46.4052	272.4747	36.6343	536.0139	-0.0462	0.0182	-0.0073	-0.0462	0.0165	0.9715
8.1911	0	0	0	0	0	0	-9.5106	751.2908	-45.9736	266.8101	34.9945	519.8886	-0.0462	0.0182	-0.0073	-0.0462	0.0165	0.9715
8.2051	0	0	0	0	0	0	-6.1	735.7355	-45.849	261.2782	33.4398	503.6636	-0.0462	0.0182	-0.0073	-0.0462	0.0165	0.9715
8.2192	0	0	0	0	0	0	-2.2755	721.8825	-46.0526	256.4699	31.9893	488.3508	-0.0462	0.0182	-0.0073	-0.0462	0.0165	0.9715
8.2333	0	0	0	0	0	0	1.9174	710.957	-46.5665	252.8615	30.6533	474.7992	-0.0462	0.0182	-0.0073	-0.0462	0.0165	0.9715
8.2474	0	0	0	0	0	0	6.3762	703.6489	-47.3251	250.7253	29.4303	463.5446	-0.0462	0.0182	-0.0073	-0.0462	0.0165	0.9715
8.2614	0	0	0	0	0	0	10.9403	699.9841	-48.2161	250.0779	28.3068	454.7249	-0.0462	0.0182	-0.0073	-0.0462	0.0165	0.9715
8.2755	0	0	0	0	0	0	15.3998	699.3117	-49.0905	250.6724	27.2608	448.0693	-0.0462	0.0182	-0.0073	-0.0462	0.0165	0.9715
8.2896	15.1345	21.603	-0.81035	-8.0557	6.6814	15.384	19.5161	700.4065	-49.7816	252.0344	26.2656	442.9567	-0.0462	0.0182	-0.0073	-0.0462	0.0165	0.9715
8.3036	18.2451	48.3365	-0.7351	-18.0748	7.7207	37.5515	23.0552	701.6614	-50.127	253.5338	25.2937	438.5264	-0.0462	0.0182	-0.0073	-0.0462	0.0165	0.9715
8.3177	20.0551	81.8246	0.0010932	-30.5997	7.7097	65.2997	25.8284	701.3363	-49.9922	254.4805	24.3169	433.8196	-0.0462	0.0182	-0.0073	-0.0462	0.0165	0.9715
8.3318	20.0981	120.5243	1.5525	-45.0513	6.3504	97.3156	27.7343	697.8177	-49.2889	254.2255	23.3045	427.9237	-0.0462	0.0182	-0.0073	-0.0462	0.0165	0.9715
8.3459	18.1653	162.2475	3.9831	-60.614	3.5182	131.7412	28.7875	689.8412	-47.9864	252.2504	22.2203	420.095	-0.0462	0.0182	-0.0073	-0.0462	0.0165	0.9715
8.3599	14.3762	204.5369	7.2325	-76.3775	-0.68392	166.4878	29.1255	676.6336	-46.114	248.2258	21.0225	409.8374	-0.0462	0.0182	-0.0073	-0.0462	0.0165	0.9715
8.374	9.1584	245.1009	11.1042	-91.5002	-5.9236	199.6041	28.9845	657.9489	-43.7533	242.03	19.6685	396.9251	-0.0462	0.0182	-0.0073	-0.0462	0.0165	0.9715
8.3881	3.1453	282.1688	15.2898	-105.3404	-11.699	229.5797	28.6469	634.0008	-41.0224	233.7258	18.1244	381.3731	-0.0462	0.0182	-0.0073	-0.0462	0.0165	0.9715
8.4021	-2.9635	314.6811	19.4263	-117.5241	-17.4389	255.5099	28.3734	605.3241	-38.0534	223.5098	16.3764	363.373	-0.0462	0.0182	-0.0073	-0.0462	0.0165	0.9715
